<?xml version="1.0" encoding="utf-8"?>
<!-- Generator: Adobe Illustrator 21.1.0, SVG Export Plug-In . SVG Version: 6.00 Build 0)  -->
<svg version="1.1" id="Layer_1" xmlns="http://www.w3.org/2000/svg" xmlns:xlink="http://www.w3.org/1999/xlink" x="0px" y="0px"
	 viewBox="0 0 41 32.9" style="enable-background:new 0 0 41 32.9;" xml:space="preserve">
<style type="text/css">
	.st0{fill:#E82066;}
</style>
<g>
	<g>
		<path class="st0" d="M13.9,28H6.2C5,28,4,27,4,25.8V14.2H1.8c-0.2,0-0.3-0.1-0.4-0.2c-0.5-0.4-0.8-0.9-0.8-1.5s0.3-1.1,0.8-1.5
			l3-2.4V2c0-0.5,0.4-1,1-1h3.7c0.5,0,1,0.4,1,1v2.1l3.2-2.6c0.9-0.7,2.3-0.7,3.2,0l12,9.5c0.5,0.4,0.8,0.9,0.8,1.5S29,13.6,28.5,14
			c-0.1,0.1-0.3,0.2-0.4,0.2h-2.3v1.2c0,0.4-0.3,0.7-0.7,0.7c-0.4,0-0.7-0.3-0.7-0.7v-1.9c0-0.4,0.3-0.7,0.7-0.7h2.7
			c0-0.1,0.1-0.1,0.1-0.2c0-0.1-0.1-0.3-0.2-0.4l-12-9.5c-0.4-0.3-1.1-0.3-1.4,0L9.7,6.2C9.5,6.3,9.2,6.4,9,6.2
			C8.8,6.1,8.6,5.9,8.6,5.6V2.5H5.8V9c0,0.2-0.1,0.4-0.3,0.6l-3.4,2.7c-0.1,0.1-0.2,0.2-0.2,0.4c0,0.1,0,0.1,0.1,0.2h2.7
			c0.4-0.2,0.7,0.2,0.7,0.6v12.3c0,0.4,0.4,0.8,0.8,0.8h7.7c0.4,0,0.7,0.3,0.7,0.7S14.3,28,13.9,28z"/>
	</g>
	<g>
		<path class="st0" d="M13.9,22.1h-1.3c-1,0-1.9-0.9-1.9-1.9v-3.8c0-1.1,0.8-1.9,1.9-1.9h3.7c1,0,1.9,0.9,1.9,1.9
			c0,0.4-0.3,0.7-0.7,0.7c-0.4,0-0.7-0.3-0.7-0.7c0-0.3-0.2-0.5-0.5-0.5h-3.7c-0.3,0-0.5,0.2-0.5,0.5v3.8c0,0.3,0.2,0.5,0.5,0.5h1.3
			c0.4,0,0.7,0.3,0.7,0.7S14.3,22.1,13.9,22.1z"/>
	</g>
	<g>
		<g>
			<path class="st0" d="M22.7,32.3c-2.8,0-5.4-1.5-6.8-4c-2.1-3.8-0.7-8.5,3-10.6c1.2-0.6,2.5-1,3.8-1c2.8,0,5.4,1.5,6.8,4
				c2.1,3.8,0.7,8.5-3,10.6C25.3,32,24,32.3,22.7,32.3z M22.7,18.1c-1.1,0-2.1,0.3-3.1,0.8c-3.1,1.7-4.2,5.6-2.5,8.7
				c1.1,2,3.3,3.3,5.6,3.3c1.1,0,2.1-0.3,3.1-0.8c3.1-1.7,4.2-5.6,2.5-8.7C27.1,19.4,25,18.1,22.7,18.1z"/>
		</g>
		<g>
			<path class="st0" d="M39.5,32c-0.1,0-0.2,0-0.3,0L29,28.1c-0.4-0.1-0.6-0.5-0.4-0.9c0.1-0.4,0.5-0.6,0.9-0.4l10.2,3.9
				c0.4,0.1,0.6,0.5,0.4,0.9C40.1,31.9,39.8,32,39.5,32z"/>
		</g>
	</g>
</g>
</svg>
