<?xml version="1.0" encoding="utf-8"?>
<!-- Generator: Adobe Illustrator 22.1.0, SVG Export Plug-In . SVG Version: 6.00 Build 0)  -->
<svg version="1.1" id="Layer_1" xmlns="http://www.w3.org/2000/svg" xmlns:xlink="http://www.w3.org/1999/xlink" x="0px" y="0px"
	 viewBox="0 0 40 40" style="enable-background:new 0 0 40 40;" xml:space="preserve">
<style type="text/css">
	.st0{fill:#FFFFFF;}
</style>
<path class="st0" d="M2.6,18.9c-0.7,0-1.4,0.6-1.4,1.4c0,0.7,0.6,1.4,1.4,1.4h30.7L17.9,37c-0.5,0.5-0.5,1.4,0,1.9s1.4,0.5,1.9,0
	l17.7-17.7l0,0c0.3-0.3,0.4-0.6,0.4-0.9l0,0l0,0l0,0c0-0.4-0.2-0.8-0.5-1.1L19.8,1.6c-0.5-0.5-1.4-0.5-1.9,0s-0.5,1.4,0,1.9
	l15.4,15.4H2.6L2.6,18.9z"/>
</svg>
