<?xml version="1.0" encoding="utf-8"?>
<!-- Generator: Adobe Illustrator 22.1.0, SVG Export Plug-In . SVG Version: 6.00 Build 0)  -->
<svg version="1.1" id="Layer_1" xmlns="http://www.w3.org/2000/svg" xmlns:xlink="http://www.w3.org/1999/xlink" x="0px" y="0px"
	 viewBox="0 0 47 33" style="enable-background:new 0 0 47 33;" xml:space="preserve">
<style type="text/css">
	.st0{fill:#333333;}
</style>
<g>
	<path class="st0" d="M21.5,17.7h-11c-0.6,0-1-0.4-1-1v-9c0-0.6,0.4-1,1-1h11c0.6,0,1,0.4,1,1v9C22.5,17.3,22.1,17.7,21.5,17.7z
		 M11.5,15.7h9v-7h-9V15.7z"/>
	<g>
		<g>
			<rect x="21.5" y="13.7" class="st0" width="4" height="2"/>
			<path class="st0" d="M46.5,22.6c0-0.1,0-0.1,0-0.2s-0.1-0.1-0.1-0.2v-0.1l-5.8-7.7V3.7c0-1.7-1.3-3-3-3h-12h-16c-1.7,0-3,1.3-3,3
				v10.7l-5.8,7.7v0.1c0,0.1-0.1,0.1-0.1,0.2s0,0.1,0,0.2v0.1v9c0,0.6,0.4,1,1,1h3c0.4,0,0.7-0.2,0.9-0.6l1.7-3.4h32.8l1.7,3.4
				c0.2,0.3,0.5,0.6,0.9,0.6h3c0.6,0,1-0.4,1-1v-9C46.5,22.7,46.5,22.6,46.5,22.6z M8,15.7h2.5v-2h-2v-10c0-0.6,0.4-1,1-1h12h16
				c0.6,0,1,0.4,1,1v10h-2v2H39l4.5,6h-40L8,15.7z M44.5,30.7h-1.4l-1.7-3.4c-0.2-0.3-0.5-0.6-0.9-0.6h-34c-0.4,0-0.7,0.2-0.9,0.6
				l-1.7,3.4H2.5v-7h42V30.7z"/>
		</g>
		<path class="st0" d="M36.5,17.7h-11c-0.6,0-1-0.4-1-1v-9c0-0.6,0.4-1,1-1h11c0.6,0,1,0.4,1,1v9C37.5,17.3,37.1,17.7,36.5,17.7z
			 M26.5,15.7h9v-7h-9V15.7z"/>
	</g>
</g>
</svg>
