<?xml version="1.0" encoding="utf-8"?>
<!-- Generator: Adobe Illustrator 22.1.0, SVG Export Plug-In . SVG Version: 6.00 Build 0)  -->
<svg version="1.1" id="Layer_1" xmlns="http://www.w3.org/2000/svg" xmlns:xlink="http://www.w3.org/1999/xlink" x="0px" y="0px"
	 viewBox="0 0 34.8 36" style="enable-background:new 0 0 34.8 36;" xml:space="preserve">
<style type="text/css">
	.st0{fill-rule:evenodd;clip-rule:evenodd;fill:#666666;}
</style>
<g>
	<path class="st0" d="M16.4,2.5c3.2,0,6.1,0.9,8.6,2.5c-0.7,0.6-1.3,1.3-2,1.9c-0.2,0.2-0.3,0.3-0.5,0.5c-1.8-1-3.9-1.6-6.1-1.6
		c-6.9,0-12.6,5.6-12.6,12.6S9.5,31,16.4,31s12.6-5.6,12.6-12.6c0-2.1-0.5-4.1-1.4-5.8c0.1-0.2,0.3-0.4,0.4-0.6
		c0.6-0.8,1.1-1.6,1.7-2.4c1.7,2.5,2.7,5.6,2.7,8.8c0,8.8-7.1,15.9-15.9,15.9c-8.8,0-15.9-7.1-15.9-15.9C0.5,9.6,7.6,2.5,16.4,2.5
		L16.4,2.5z"/>
	<path class="st0" d="M33,1.5l1,1.4c-5.5,3.8-10.5,11.7-13.4,20.3l-2,1.4c-1.7,1.2-2.8,2-3.4,2.6c-0.2-0.9-0.7-2.2-1.5-4.2l-0.8-1.8
		c-1.1-2.5-2.1-4.4-3-5.6c-0.9-1.2-2.5-1.3-3.7-1.7c2-2.1,4.3-3.8,5.9-3.8c1.4,0,2.9,1.9,4.6,5.7l0.8,1.9C20.7,11.1,27.1,4.5,33,1.5
		L33,1.5z"/>
</g>
</svg>
