<svg id="Layer_1" data-name="Layer 1" xmlns="http://www.w3.org/2000/svg" viewBox="0 0 940 788"><defs><style>.cls-1{fill:#00adee;}</style></defs><g id="Layer-1"><path class="cls-1" d="M155.14,704.68a23.57,23.57,0,0,0,0,33.19l41.56,40.71a23.2,23.2,0,0,0,32.64-3.64c.06-.08.11-.13.19-.22L444.32,563.55l-65.67-75L155.33,704.68ZM906.5,106.54c-3.2-21.62-14.42-17.13-20.25-8s-31.6,48.35-42.16,65.94a52.45,52.45,0,0,1-84.68,18c-50.26-35.57-32.81-60.19-24-77s35.9-63.78,39.71-69.61A11.77,11.77,0,0,0,758.83,20c-15.62,7.17-110.45,44.88-123.59,98.94-13.4,55,11.25,104.14-37.21,153l-58.8,61.29,59,68.57L670.68,333a102.39,102.39,0,0,1,87.55-26.57c71.5,16.14,110.49-10.67,134.07-55.08,21.1-39.67,17.59-123.12,14.31-144.82ZM422.4,282.39a11.24,11.24,0,0,0-15.65-2.77,8.92,8.92,0,0,0-1.75,1.51l-62.77,54.72a12.65,12.65,0,0,0-1.17,17.51L704.14,766.51A23.28,23.28,0,0,0,737,768.87l0,0,42.44-35.57a23.68,23.68,0,0,0,2.27-33.19L422.43,282.39ZM172.48,259.76c40.85-31.74,74.73-9.85,120,42.52,5.06,5.91,11.88-1,15.82-4.38s63.5-57.13,66.43-59.59a8.5,8.5,0,0,0,2.57-11.77,7,7,0,0,0-.76-1c-4.68-5.47-21.59-27.36-32.54-41.64C264.83,80.35,560.57,10.12,515.1,9.05c-23.09-.6-116-1.67-129.64-.17-56.17,5.91-126.68,58.39-162.19,82.88a441.52,441.52,0,0,0-66.68,53c-13.16,11.46-2.11,38-25.94,58.82-25.15,22-40.88,5.34-55.46,18.12C68,228.13,47.83,243.26,42,248.29a14.24,14.24,0,0,0-1.42,20.09c.14.19.33.35.49.55,0,0,55.35,61.12,59.89,66.54a19.1,19.1,0,0,0,24.79,3.12c7.75-6.84,27.69-24.22,31-27.36s-2.19-37.71,15.65-51.53Z"/></g></svg>