<?xml version="1.0" encoding="UTF-8" standalone="no"?>
<!DOCTYPE svg PUBLIC "-//W3C//DTD SVG 1.1//EN" "http://www.w3.org/Graphics/SVG/1.1/DTD/svg11.dtd">
<svg width="100%" height="100%" viewBox="0 0 135 120" version="1.1" xmlns="http://www.w3.org/2000/svg" xmlns:xlink="http://www.w3.org/1999/xlink" xml:space="preserve" xmlns:serif="http://www.serif.com/" style="fill-rule:evenodd;clip-rule:evenodd;stroke-linejoin:round;stroke-miterlimit:2;">
    <g id="Layer-1" serif:id="Layer 1" transform="matrix(4.16667,0,0,4.16667,-12899,-19918)">
        <g>
            <g transform="matrix(1,0,0,1,3100.45,4783.58)">
                <path d="M0,22.491C-0.333,22.827 -0.333,23.368 0,23.704L1.519,25.192C1.885,25.485 2.419,25.426 2.712,25.059C2.714,25.056 2.716,25.054 2.719,25.051L10.569,17.333L8.169,14.591L0.007,22.491L0,22.491ZM27.461,0.63C27.344,-0.16 26.934,0.004 26.721,0.339C26.507,0.674 25.566,2.106 25.18,2.749C24.776,3.727 23.656,4.193 22.678,3.79C22.458,3.7 22.257,3.569 22.085,3.405C20.248,2.105 20.886,1.205 21.207,0.592C21.529,-0.021 22.519,-1.739 22.658,-1.952C22.775,-2.158 22.702,-2.421 22.495,-2.537C22.361,-2.613 22.196,-2.612 22.064,-2.533C21.493,-2.271 18.027,-0.893 17.547,1.083C17.057,3.093 17.958,4.889 16.187,6.673L14.038,8.913L16.196,11.419L18.842,8.906C19.697,8.097 20.882,7.738 22.042,7.935C24.655,8.525 26.08,7.545 26.942,5.922C27.713,4.472 27.585,1.422 27.465,0.629L27.461,0.63ZM9.768,7.057C9.638,6.871 9.382,6.826 9.196,6.956C9.173,6.971 9.151,6.99 9.132,7.011L6.838,9.011C6.654,9.178 6.635,9.461 6.795,9.651L20.065,24.751C20.373,25.106 20.909,25.144 21.265,24.837L21.266,24.836L22.817,23.536C23.172,23.222 23.209,22.681 22.9,22.323L9.769,7.057L9.768,7.057ZM0.634,6.23C2.127,5.07 3.365,5.87 5.019,7.784C5.204,8 5.453,7.747 5.597,7.624C5.739,7.501 7.918,5.536 8.025,5.446C8.17,5.353 8.212,5.161 8.119,5.016C8.111,5.003 8.102,4.991 8.091,4.979C7.92,4.779 7.302,3.979 6.902,3.457C4.009,-0.327 14.818,-2.894 13.156,-2.933C12.312,-2.955 8.918,-2.994 8.418,-2.939C6.365,-2.723 3.788,-0.805 2.49,0.09C1.617,0.656 0.801,1.305 0.053,2.028C-0.428,2.447 -0.024,3.415 -0.895,4.178C-1.814,4.983 -2.389,4.373 -2.922,4.84C-3.186,5.074 -3.922,5.627 -4.136,5.811C-4.353,5.999 -4.376,6.327 -4.188,6.545C-4.183,6.552 -4.176,6.558 -4.17,6.565C-4.17,6.565 -2.147,8.799 -1.981,8.997C-1.749,9.255 -1.363,9.303 -1.075,9.111C-0.792,8.861 -0.063,8.226 0.059,8.111C0.181,7.996 -0.021,6.733 0.631,6.228L0.634,6.23Z" style="fill:rgb(255,60,128);fill-rule:nonzero;"/>
            </g>
        </g>
    </g>
</svg>
