<?xml version="1.0" encoding="utf-8"?>
<!-- Generator: Adobe Illustrator 22.1.0, SVG Export Plug-In . SVG Version: 6.00 Build 0)  -->
<svg version="1.1" id="Layer_1" xmlns="http://www.w3.org/2000/svg" xmlns:xlink="http://www.w3.org/1999/xlink" x="0px" y="0px"
	 viewBox="0 0 34.8 46.2" style="enable-background:new 0 0 34.8 46.2;" xml:space="preserve">
<style type="text/css">
	.st0{fill:#666666;}
</style>
<g>
	<g>
		<path class="st0" d="M17.4,45.7c-0.4,0-0.8-0.2-1.1-0.5C15.7,44.4,0.4,26.4,0.4,17.4c0-9.4,7.6-17,17-17c9.4,0,17,7.6,17,17
			c0,9-15.3,27-15.9,27.8C18.2,45.5,17.8,45.7,17.4,45.7z M17.4,3.2C9.6,3.2,3.2,9.5,3.2,17.4c0,6.2,9.5,18.9,14.2,24.8
			c4.8-5.8,14.2-18.6,14.2-24.8C31.7,9.5,25.3,3.2,17.4,3.2z"/>
	</g>
	<g>
		<path class="st0" d="M17.4,24.2c-3.8,0-6.8-3.1-6.8-6.8c0-3.8,3.1-6.8,6.8-6.8c3.8,0,6.8,3.1,6.8,6.8
			C24.2,21.1,21.2,24.2,17.4,24.2z M17.4,13.3c-2.2,0-4.1,1.8-4.1,4.1c0,2.2,1.8,4.1,4.1,4.1c2.2,0,4-1.8,4-4.1
			C21.5,15.2,19.7,13.3,17.4,13.3z"/>
	</g>
</g>
</svg>
