<?xml version="1.0" encoding="utf-8"?>
<!-- Generator: Adobe Illustrator 22.1.0, SVG Export Plug-In . SVG Version: 6.00 Build 0)  -->
<svg version="1.1" id="Layer_1" xmlns="http://www.w3.org/2000/svg" xmlns:xlink="http://www.w3.org/1999/xlink" x="0px" y="0px"
	 viewBox="0 0 39 32" style="enable-background:new 0 0 39 32;" xml:space="preserve">
<style type="text/css">
	.st0{fill:#B51950;}
</style>
<g>
	<path class="st0" d="M16.4,3.8C9.6,8.9,6.9,13.3,6.9,19c0.9-0.6,2.1-0.9,3.4-0.9c3.5,0,5.8,2.6,5.8,6.2c0,4-3,6.9-7.6,6.9
		c-5.2,0-8-3.7-8-10.6C0.4,13,3.6,8.2,13.8,0.7L16.4,3.8z M38,3.8c-6.9,5.2-9.6,9.6-9.6,15.3c0.9-0.6,2.1-0.9,3.4-0.9
		c3.5,0,5.8,2.6,5.8,6.2c0,4-3,6.9-7.6,6.9c-5.2,0-8-3.7-8-10.6c0-7.7,3.2-12.5,13.4-20L38,3.8z"/>
</g>
</svg>
