<svg id="Layer_1" data-name="Layer 1" xmlns="http://www.w3.org/2000/svg" viewBox="0 0 40 40"><defs><style>.cls-1{fill:#00adee;}</style></defs><path class="cls-1" d="M38.1,28.6l-6-6a3.26,3.26,0,0,0-4.5,0l-2.2,2.2a1.07,1.07,0,0,1-1.4.1c-1.6-1.3-3.2-2.8-4.8-4.3a49.07,49.07,0,0,1-4.3-4.8,1,1,0,0,1,.1-1.4l2.2-2.2a3.26,3.26,0,0,0,0-4.5l-6-6a3.26,3.26,0,0,0-4.5,0l-3.1,3a7.55,7.55,0,0,0-1.2,8.9,56,56,0,0,0,4.6,7,68,68,0,0,0,5.7,6.5,57.66,57.66,0,0,0,6.5,5.7,49.54,49.54,0,0,0,7,4.6,7.68,7.68,0,0,0,3.6.9A7,7,0,0,0,35,36.1L38.1,33A3.14,3.14,0,0,0,38.1,28.6Zm-1.5,3-3.1,3.1a5.43,5.43,0,0,1-6.4.9,45.37,45.37,0,0,1-6.7-4.4,65.27,65.27,0,0,1-6.3-5.5,65.27,65.27,0,0,1-5.5-6.3,51.29,51.29,0,0,1-4.4-6.7,5.43,5.43,0,0,1,.9-6.5L8.2,3.1a1.09,1.09,0,0,1,1.5,0l6,6a1.08,1.08,0,0,1,.3.7.91.91,0,0,1-.3.7l-2.2,2.2a3.22,3.22,0,0,0-.2,4.3,52.26,52.26,0,0,0,4.5,4.9c1.6,1.6,3.2,3.1,4.9,4.5a3.22,3.22,0,0,0,4.3-.2L29.2,24a1.09,1.09,0,0,1,1.5,0l6,6A1.35,1.35,0,0,1,36.6,31.6Z"/></svg>