<?xml version="1.0" encoding="utf-8"?>
<!-- Generator: Adobe Illustrator 22.1.0, SVG Export Plug-In . SVG Version: 6.00 Build 0)  -->
<svg version="1.1" id="Layer_1" xmlns="http://www.w3.org/2000/svg" xmlns:xlink="http://www.w3.org/1999/xlink" x="0px" y="0px"
	 viewBox="0 0 40 40" style="enable-background:new 0 0 40 40;" xml:space="preserve">
<style type="text/css">
	.st0{fill:#FF3C80;}
</style>
<g>
	<path class="st0" d="M38.1,28.6l-6-6c-1.2-1.2-3.3-1.2-4.5,0l-2.2,2.2c-0.4,0.4-1,0.4-1.4,0.1c-1.6-1.3-3.2-2.8-4.8-4.3
		c-1.5-1.5-3-3.1-4.3-4.8c-0.4-0.4-0.3-1,0.1-1.4l2.2-2.2c1.2-1.2,1.2-3.3,0-4.5l-6-6c-1.2-1.2-3.3-1.2-4.5,0l-3.1,3
		c-2.3,2.3-2.8,6-1.2,8.9c1.3,2.3,2.8,4.7,4.6,7c1.7,2.2,3.6,4.4,5.7,6.5s4.2,4,6.5,5.7c2.3,1.8,4.6,3.3,7,4.6
		c1.1,0.6,2.4,0.9,3.6,0.9c1.9,0,3.8-0.7,5.2-2.2l3.1-3.1C39.3,31.8,39.3,29.8,38.1,28.6z M36.6,31.6l-3.1,3.1
		c-1.7,1.7-4.2,2-6.4,0.9c-2.3-1.2-4.5-2.7-6.7-4.4c-2.2-1.7-4.3-3.5-6.3-5.5s-3.8-4.1-5.5-6.3s-3.2-4.5-4.4-6.7S3.4,7.9,5.1,6.2
		l3.1-3.1c0.4-0.4,1.1-0.4,1.5,0l6,6C15.9,9.3,16,9.6,16,9.8c0,0.3-0.1,0.5-0.3,0.7l-2.2,2.2c-1.2,1.2-1.2,3-0.2,4.3
		c1.4,1.7,2.9,3.4,4.5,4.9c1.6,1.6,3.2,3.1,4.9,4.5c1.3,1,3.1,1,4.3-0.2l2.2-2.2c0.4-0.4,1.1-0.4,1.5,0l6,6
		C37,30.5,37,31.2,36.6,31.6z"/>
</g>
</svg>
