<?xml version="1.0" encoding="utf-8"?>
<!-- Generator: Adobe Illustrator 22.1.0, SVG Export Plug-In . SVG Version: 6.00 Build 0)  -->
<svg version="1.1" id="Layer_1" xmlns="http://www.w3.org/2000/svg" xmlns:xlink="http://www.w3.org/1999/xlink" x="0px" y="0px"
	 viewBox="0 0 40 40" style="enable-background:new 0 0 40 40;" xml:space="preserve">
<style type="text/css">
	.st0{fill:#FFFFFF;}
</style>
<g>
	<path class="st0" d="M10.9,38.1l7.1-8.3c1.9,0.9,4,1.4,6.3,1.4c8.4,0,15.3-6.9,15.3-15.3S32.7,0.6,24.3,0.6S9,7.5,9,15.9
		c0,2.5,0.6,4.8,1.7,6.9l-8.1,6.9c-1,0.8-1.5,2-1.5,3.3c0,1.2,0.5,2.2,1.3,3.1l2.3,2.3c0.9,0.9,2,1.3,3.2,1.3
		C8.9,39.6,10.1,39.1,10.9,38.1z M24.2,4.7c6.2,0,11.2,5,11.2,11.2s-5,11.2-11.2,11.2C18,27,13,22,13,15.9C13,9.7,18,4.7,24.2,4.7z
		 M7.4,35.5l-2.3-2.3C5,33,5,32.9,5.1,32.9l7.8-6.7c0.5,0.5,0.9,1,1.5,1.4l-6.7,7.9c0,0.1-0.1,0.1-0.1,0.1
		C7.5,35.5,7.5,35.5,7.4,35.5z"/>
</g>
</svg>
