<?xml version="1.0" encoding="utf-8"?>
<!-- Generator: Adobe Illustrator 22.1.0, SVG Export Plug-In . SVG Version: 6.00 Build 0)  -->
<svg version="1.1" id="Layer_1" xmlns="http://www.w3.org/2000/svg" xmlns:xlink="http://www.w3.org/1999/xlink" x="0px" y="0px"
	 viewBox="0 0 33.3 29.3" style="enable-background:new 0 0 33.3 29.3;" xml:space="preserve">
<style type="text/css">
	.st0{fill:#FFFFFF;}
</style>
<g>
	<g>
		<path class="st0" d="M13.5,25.7H5.8c-1.1,0-2-0.9-2-2V12.9H1.7c-0.1,0-0.3,0-0.4-0.1c-0.4-0.3-0.7-0.8-0.7-1.3s0.2-1,0.7-1.3
			l2.9-2.3V1.8C4.2,1.3,4.6,1,5,1h3.4c0.4,0,0.8,0.4,0.8,0.8v2.1l3.2-2.5c0.8-0.6,2.1-0.6,2.9,0l7.6,6c0.1,0.2,0.2,0.6,0,0.9
			c-0.2,0.2-0.6,0.3-0.8,0.1l-7.6-6c-0.4-0.3-1.1-0.3-1.4,0L9,5.6c-0.2,0.1-0.4,0.1-0.6,0C8.2,5.5,8.1,5.3,8.1,5.1v-3H5.4v6
			c0,0.2-0.1,0.3-0.2,0.4L2,11.1c-0.1,0.1-0.2,0.3-0.2,0.4c0,0.1,0,0.2,0.1,0.3h2.5C4.7,11.8,5,12,5,12.3v11.4
			c0,0.5,0.4,0.8,0.8,0.8h7.7c0.3,0,0.6,0.3,0.6,0.6C14.1,25.4,13.8,25.7,13.5,25.7z"/>
	</g>
	<g>
		<path class="st0" d="M11.2,19.8c-1.1,0-2-0.8-2-1.7v-3.5c0-0.9,0.9-1.7,2-1.7H13c0.3,0,0.6,0.3,0.6,0.6s-0.3,0.6-0.6,0.6h-1.8
			c-0.5,0-0.9,0.3-0.9,0.6v3.5c0,0.3,0.4,0.6,0.9,0.6c0.3,0,0.6,0.3,0.6,0.6C11.7,19.6,11.5,19.8,11.2,19.8z"/>
	</g>
	<g>
		<path class="st0" d="M22.9,28.8c-5.5,0-9.9-4.5-9.9-9.9c0-5.5,4.5-9.9,9.9-9.9c5.5,0,9.9,4.5,9.9,9.9
			C32.8,24.4,28.4,28.8,22.9,28.8z M22.9,10.1c-4.8,0-8.8,3.9-8.8,8.8c0,4.8,3.9,8.8,8.8,8.8c4.8,0,8.8-3.9,8.8-8.8
			C31.7,14.1,27.8,10.1,22.9,10.1z"/>
	</g>
</g>
<g>
	<path class="st0" d="M22,21.4h4.5v1.7h-8v-1.7h1.3v-2.3h-1.3v-1.3h1.3v-0.3c0-2.4,1.6-3.8,4.3-3.8c1.1,0,2,0.2,2.7,0.6L26.1,16
		c-0.6-0.3-1.3-0.5-2-0.5c-1.4,0-2.2,0.6-2.2,1.9v0.4h3.2v1.3H22V21.4z"/>
</g>
</svg>
